<svg width="24" height="24" viewBox="0 0 24 24" fill="#101010" xmlns="http://www.w3.org/2000/svg">
    <path fill-rule="evenodd" clip-rule="evenodd" d="M12 3.5C7.30558 3.5 3.5 7.30558 3.5 12C3.5 16.6944 7.30558 20.5 12 20.5C16.6944 20.5 20.5 16.6944 20.5 12C20.5 7.30558 16.6944 3.5 12 3.5ZM2.5 12C2.5 6.75329 6.75329 2.5 12 2.5C17.2467 2.5 21.5 6.75329 21.5 12C21.5 17.2467 17.2467 21.5 12 21.5C6.75329 21.5 2.5 17.2467 2.5 12Z"/>
    <path fill-rule="evenodd" clip-rule="evenodd" d="M16.3448 9.23803C16.5448 9.42847 16.5525 9.74496 16.3621 9.94493L11.0287 15.5449C10.9372 15.641 10.8112 15.6968 10.6786 15.7C10.5459 15.7031 10.4174 15.6534 10.3214 15.5618L7.65476 13.0163C7.45501 12.8256 7.44765 12.5091 7.63832 12.3094C7.82899 12.1096 8.14549 12.1023 8.34524 12.293L10.6498 14.4928L15.6379 9.25527C15.8284 9.05531 16.1449 9.04759 16.3448 9.23803Z"/>
</svg>
